<svg width="37" height="36" viewBox="0 0 37 36" fill="none" xmlns="http://www.w3.org/2000/svg">
<path d="M9.54688 15.256L17.0934 22.4595L34.5876 2.90717" stroke="#F29300" stroke-width="4.11628"/>
<path d="M32.9899 22.1963C33.8379 19.1226 33.7348 15.8642 32.6942 12.8503" stroke="#696F71" stroke-width="3.43024"/>
<path d="M18.6191 33.7565C21.6698 33.5939 24.6077 32.5491 27.0761 30.7491C29.5445 28.9491 31.4373 26.4713 32.5247 23.6163" stroke="#696F71" stroke-width="3.43024"/>
<path d="M2.01926 18.7792C2.21163 22.6686 3.83542 26.3495 6.57827 29.1138C9.32112 31.8781 12.9893 33.5305 16.877 33.7531" stroke="#696F71" stroke-width="3.43024"/>
<path d="M23.6455 3.35177C21.3041 2.41406 18.7721 2.05128 16.2616 2.29384C13.7511 2.5364 11.3354 3.37722 9.21682 4.74584C7.09828 6.11445 5.33868 7.97098 4.08551 10.1598C2.83234 12.3486 2.12213 14.8059 2.0144 17.3258" stroke="#696F71" stroke-width="3.43024"/>
</svg>
